<?xml version="1.0" standalone="no"?>
<!DOCTYPE svg PUBLIC "-//W3C//DTD SVG 20010904//EN"
 "http://www.w3.org/TR/2001/REC-SVG-20010904/DTD/svg10.dtd">
<svg version="1.0" xmlns="http://www.w3.org/2000/svg"
 width="512.000000pt" height="512.000000pt" viewBox="0 0 512.000000 512.000000"
 preserveAspectRatio="xMidYMid meet">
<metadata>
Created by potrace 1.15, written by Peter Selinger 2001-2017
</metadata>
<g transform="translate(0.000000,512.000000) scale(0.100000,-0.100000)"
fill="#000000" stroke="none">
<path d="M1894 4631 c-80 -49 -362 -428 -696 -936 -379 -576 -599 -1015 -701
-1395 -29 -108 -31 -126 -31 -300 -1 -202 9 -272 66 -450 188 -589 728 -1003
1353 -1037 122 -6 154 2 194 53 45 57 36 151 -19 198 -33 27 -38 28 -205 46
-303 33 -538 143 -746 350 -241 239 -371 558 -356 875 10 206 108 473 316 863
142 265 584 947 823 1270 l69 93 51 -63 c321 -401 870 -1285 1026 -1654 38
-90 106 -127 188 -105 62 16 96 59 102 125 4 49 -1 66 -47 168 -186 411 -599
1078 -997 1608 -149 199 -214 274 -255 295 -39 21 -98 19 -135 -4z"/>
<path d="M2767 2335 c-209 -40 -380 -152 -496 -325 -105 -157 -157 -331 -168
-561 -23 -499 189 -850 574 -950 221 -57 508 -22 689 84 196 115 336 357 380
657 24 164 15 398 -19 531 -73 281 -251 459 -544 545 -113 33 -299 41 -416 19z
m325 -285 c147 -46 255 -165 303 -336 13 -43 18 -113 22 -259 4 -190 3 -205
-21 -299 -33 -128 -95 -256 -152 -313 -108 -107 -314 -147 -491 -94 -201 59
-326 270 -340 576 -13 277 62 515 202 643 113 103 304 136 477 82z"/>
<path d="M4170 1587 c-79 -19 -131 -49 -184 -107 -49 -55 -76 -123 -76 -192 0
-54 44 -102 93 -102 47 0 81 32 103 96 21 64 77 122 133 139 38 11 50 11 100
-7 50 -17 58 -24 80 -67 22 -45 23 -53 12 -102 -16 -72 -63 -139 -135 -194
-266 -205 -395 -345 -396 -429 0 -31 26 -79 49 -92 12 -6 138 -10 336 -10
l317 0 29 29 c34 35 36 52 9 96 -35 56 -75 65 -286 65 l-186 0 14 22 c8 13 71
68 139 122 159 128 249 218 280 281 21 43 24 64 24 150 0 97 -1 103 -35 159
-56 94 -149 142 -295 151 -39 3 -94 -1 -125 -8z"/>
</g>
</svg>
